Coordinates
version=1
nRows=17
nColumns=24
inDegrees=yes

Units are S.I. units (second, meters, Newtons, ...)
Angles are in degrees.

endheader
time	pelvis_tilt	pelvis_list	pelvis_rotation	pelvis_tx	pelvis_ty	pelvis_tz	hip_flexion_r	hip_adduction_r	hip_rotation_r	knee_angle_r	ankle_angle_r	subtalar_angle_r	mtp_angle_r	hip_flexion_l	hip_adduction_l	hip_rotation_l	knee_angle_l	ankle_angle_l	subtalar_angle_l	mtp_angle_l	lumbar_extension	lumbar_bending	lumbar_rotation
      4.09500000	     -7.88034914	     -1.78819897	     -6.69490903	     -1.00370323	     -0.04162970	     -0.32708067	     -5.36975066	      2.49598716	      5.46516040	    -24.67414323	      6.96993015	     13.80191319	     19.98211652	     36.80264297	     -4.31728005	     -1.04432505	    -13.77529390	      7.40467397	     14.47031470	    -10.71754543	      5.79350162	      2.16686473	      4.94755133
      4.10000000	     -7.92659643	     -1.54604219	     -6.94232401	     -0.99617461	     -0.04291586	     -0.32749716	     -5.30779237	      2.00490710	      5.18388986	    -25.50991935	      6.52070010	     14.60874276	     20.80739980	     37.00592943	     -4.15900809	     -1.37399787	    -14.79126416	      6.42382008	     14.10818883	     -9.92831233	      5.85117709	      1.84789971	      5.03588877
      4.10500000	     -7.94836576	     -1.36388044	     -7.16351043	     -0.98877551	     -0.04405988	     -0.32798730	     -5.26214277	      1.55655568	      4.89627410	    -26.29429852	      5.81399164	     15.45514988	     22.15487169	     37.18042661	     -4.02675448	     -1.54201839	    -15.74922285	      5.07919806	     13.49444984	     -8.62003681	      5.84463357	      1.58485800	      5.06579567
      4.11000000	     -8.01614579	     -1.09992023	     -7.39247213	     -0.98133605	     -0.04515340	     -0.32840696	     -5.12592829	      1.02507945	      4.60091404	    -27.12492256	      5.06071655	     16.24748973	     23.41880789	     37.42021668	     -3.83574322	     -1.80339072	    -16.74445972	      3.71975778	     12.84930489	     -7.56507712	      5.89986500	      1.22395962	      5.12278826
      4.11500000	     -8.12385471	     -0.84393157	     -7.49125358	     -0.97387495	     -0.04624430	     -0.32900832	     -4.92201271	      0.47954621	      4.06791943	    -28.00483236	      4.26011834	     17.25111146	     24.51077979	     37.75857928	     -3.56868900	     -1.93889234	    -17.83894721	      2.51739861	     12.24013043	     -7.11437320	      5.99950572	      0.85599054	      5.01698653
      4.12000000	     -8.26290427	     -0.52978033	     -7.68328401	     -0.96640125	     -0.04723642	     -0.32945912	     -4.62099668	     -0.13128511	      3.66745724	    -28.98052178	      3.46413913	     18.35878678	     25.20417936	     38.14428096	     -3.33256954	     -2.30371042	    -19.00977264	      1.53057599	     11.83279917	     -7.08243626	      6.14426968	      0.43429457	      5.01864532
      4.12500000	     -8.35939955	     -0.26411267	     -7.67724120	     -0.95902242	     -0.04810585	     -0.33023112	     -4.38401642	     -0.71423357	      3.02432018	    -29.81556669	      2.15344925	     19.18874161	     27.24463408	     38.47435135	     -2.93438142	     -2.06221886	    -20.07967372	      0.19165642	     10.76057409	     -6.76861852	      6.20817459	      0.03580566	      4.80947853
      4.13000000	     -8.51565967	      0.03682718	     -7.73359797	     -0.95157455	     -0.04895734	     -0.33088847	     -4.02301323	     -1.34055281	      2.45388520	    -30.76695142	      0.88997227	     20.21204347	     28.69240399	     38.88663469	     -2.58193094	     -2.09842233	    -21.24367868	     -0.79792581	     10.08095446	     -6.82879434	      6.34934999	     -0.38598641	      4.68000646
      4.13500000	     -8.61907059	      0.35433756	     -7.68971004	     -0.94397267	     -0.04966569	     -0.33162480	     -3.73463067	     -1.99740219	      1.78449954	    -31.65328351	     -0.70105221	     21.05743734	     30.53870015	     39.22722300	     -2.13172868	     -2.00824740	    -22.40779145	     -1.62397471	      9.44385584	     -7.13169303	      6.46756531	     -0.85340925	      4.47261002
      4.14000000	     -8.81116889	      0.67315512	     -7.69252777	     -0.93644003	     -0.05046479	     -0.33235112	     -3.25489988	     -2.65361962	      1.23250962	    -32.76691387	     -2.05956121	     22.24537503	     31.24550101	     39.65493170	     -1.71159882	     -1.92768196	    -23.58030229	     -2.29291310	      8.85506876	     -7.50134033	      6.67123199	     -1.28901789	      4.31743736
      4.14500000	     -8.86043334	      0.95950208	     -7.62486680	     -0.92893352	     -0.05099780	     -0.33320914	     -2.94818176	     -3.29317295	      0.64059616	    -33.70686931	     -4.03848855	     22.91691687	     33.38779383	     39.86437568	     -1.18999975	     -1.49345732	    -24.66852427	     -2.79455612	      8.00521105	     -8.36098504	      6.69759033	     -1.71503492	      4.12608293
      4.15000000	     -8.99048813	      1.28905439	     -7.54633639	     -0.92137704	     -0.05164208	     -0.33404643	     -2.48930084	     -3.96803832	      0.09166154	    -34.81258782	     -5.87134987	     23.72818412	     34.69273335	     40.15049638	     -0.66185270	     -1.24561346	    -25.74323041	     -3.14224503	      7.42250348	     -9.06282591	      6.83301922	     -2.17948526	      3.90762727
      4.15500000	     -9.14630778	      1.63493417	     -7.44845854	     -0.91385320	     -0.05230882	     -0.33491848	     -1.94871753	     -4.64675334	     -0.36317015	    -36.05127003	     -7.58218728	     24.64552456	     35.19795994	     40.42807127	     -0.11525409	     -1.04504642	    -26.73532412	     -3.48672479	      6.88141583	     -9.42253824	      6.99777012	     -2.65019757	      3.66149392
      4.16000000	     -9.16935818	      1.95077583	     -7.34132892	     -0.90638166	     -0.05274832	     -0.33584659	     -1.54592426	     -5.30627317	     -0.79916574	    -37.17294693	     -9.75540110	     25.12799627	     36.75608853	     40.48674822	      0.46548113	     -0.68792773	    -27.63345296	     -3.56961270	      6.26999954	    -10.14581971	      7.00105057	     -3.09483110	      3.46655455
      4.16500000	     -9.32341569	      2.30793342	     -7.22762312	     -0.89895554	     -0.05334329	     -0.33677017	     -0.91941302	     -5.96879605	     -1.11160626	    -38.51315573	    -11.60524299	     25.72687470	     36.97558145	     40.65112052	      1.04869386	     -0.46610298	    -28.43460557	     -3.70771291	      5.69239524	    -10.36956351	      7.15942200	     -3.56009694	      3.23918228
      4.17000000	     -9.43734977	      2.67694817	     -7.08282442	     -0.89166169	     -0.05384790	     -0.33775135	     -0.29340321	     -6.63871257	     -1.40484710	    -39.87756796	    -13.54323780	     26.10817769	     37.30664337	     40.71951423	      1.67231691	     -0.21787329	    -29.12932463	     -3.76920645	      5.13575052	    -10.54697081	      7.25410972	     -4.03907840	      3.03273761
      4.17500000	     -9.56250966	      3.06551535	     -6.92738857	     -0.88440946	     -0.05431062	     -0.33872380	      0.38293333	     -7.30051962	     -1.62323161	    -41.27870831	    -15.48448897	     26.25358764	     37.44603994	     40.74526695	      2.30322905	     -0.04461883	    -29.72593349	     -3.71726545	      4.66453394	    -10.57285875	      7.36813369	     -4.53344994	      2.81238013
